<svg xmlns="http://www.w3.org/2000/svg" viewBox="0 0 800 560" fill="none">
  <defs>
    <linearGradient id="bg" x1="0" y1="0" x2="1" y2="1">
      <stop offset="0%" stop-color="#0A0816"/>
      <stop offset="55%" stop-color="#120F25"/>
      <stop offset="100%" stop-color="#1A1433"/>
    </linearGradient>
    <radialGradient id="glow" cx="0" cy="0" r="1" gradientUnits="userSpaceOnUse" gradientTransform="translate(500 136) rotate(90) scale(220 300)">
      <stop offset="0%" stop-color="#FFFFFF" stop-opacity="0.92"/>
      <stop offset="24%" stop-color="#E7DBFF" stop-opacity="0.84"/>
      <stop offset="58%" stop-color="#A176FF" stop-opacity="0.42"/>
      <stop offset="100%" stop-color="#A176FF" stop-opacity="0"/>
    </radialGradient>
    <linearGradient id="shield" x1="0" y1="0" x2="1" y2="1">
      <stop offset="0%" stop-color="#BD98FF"/>
      <stop offset="100%" stop-color="#8D64FF"/>
    </linearGradient>
  </defs>
  <rect width="800" height="560" rx="36" fill="url(#bg)"/>
  <ellipse cx="500" cy="148" rx="252" ry="170" fill="url(#glow)"/>
  <path d="M88 428H712" stroke="rgba(255,255,255,0.05)"/>
  <g>
    <rect x="94" y="124" width="258" height="292" rx="30" fill="rgba(17,14,34,0.92)" stroke="rgba(161,118,255,0.24)"/>
    <circle cx="178" cy="198" r="34" fill="rgba(255,255,255,0.07)"/>
    <circle cx="270" cy="198" r="34" fill="rgba(161,118,255,0.18)"/>
    <path d="M178 244c20 0 36 13 44 31M270 244c-20 0-36 13-44 31" stroke="rgba(255,255,255,0.2)" stroke-width="7" stroke-linecap="round"/>
    <path d="M182 316H306" stroke="rgba(255,255,255,0.16)" stroke-width="18" stroke-linecap="round"/>
    <path d="M182 356H286" stroke="rgba(255,255,255,0.1)" stroke-width="16" stroke-linecap="round"/>
  </g>
  <g>
    <rect x="404" y="148" width="296" height="106" rx="28" fill="rgba(18,16,36,0.84)" stroke="rgba(255,255,255,0.10)"/>
    <rect x="434" y="178" width="108" height="16" rx="8" fill="rgba(255,255,255,0.12)"/>
    <rect x="434" y="206" width="156" height="12" rx="6" fill="rgba(255,255,255,0.08)"/>
    <rect x="618" y="170" width="48" height="48" rx="16" fill="rgba(161,118,255,0.16)"/>
    <path d="M632 194l9 9 13-17" stroke="#E8DEFF" stroke-width="5" stroke-linecap="round" stroke-linejoin="round"/>
  </g>
  <g>
    <rect x="404" y="288" width="134" height="124" rx="26" fill="rgba(161,118,255,0.16)"/>
    <path d="M470 312l38 13v30c0 36-18 61-38 74-20-13-38-38-38-74v-30l38-13Z" fill="url(#shield)"/>
    <path d="M454 354l12 12 22-27" stroke="#FFFFFF" stroke-width="9" stroke-linecap="round" stroke-linejoin="round"/>
  </g>
  <g>
    <rect x="560" y="288" width="140" height="124" rx="26" fill="rgba(255,255,255,0.06)"/>
    <rect x="588" y="314" width="84" height="16" rx="8" fill="rgba(255,255,255,0.14)"/>
    <rect x="588" y="344" width="96" height="14" rx="7" fill="rgba(161,118,255,0.18)"/>
    <rect x="588" y="372" width="64" height="14" rx="7" fill="rgba(255,255,255,0.08)"/>
  </g>
</svg>