<svg xmlns="http://www.w3.org/2000/svg" viewBox="0 0 800 560" fill="none">
  <defs>
    <linearGradient id="bg" x1="0" y1="0" x2="1" y2="1">
      <stop offset="0%" stop-color="#FBF8FF"/>
      <stop offset="100%" stop-color="#F1ECFB"/>
    </linearGradient>
    <radialGradient id="glow" cx="0" cy="0" r="1" gradientUnits="userSpaceOnUse" gradientTransform="translate(488 128) rotate(90) scale(220 290)">
      <stop offset="0%" stop-color="#FFFFFF"/>
      <stop offset="24%" stop-color="#EEE8FF" stop-opacity="0.9"/>
      <stop offset="58%" stop-color="#7B66D8" stop-opacity="0.2"/>
      <stop offset="100%" stop-color="#7B66D8" stop-opacity="0"/>
    </radialGradient>
    <linearGradient id="accent" x1="0" y1="0" x2="1" y2="1">
      <stop offset="0%" stop-color="#8F7BE8"/>
      <stop offset="100%" stop-color="#6E5CC6"/>
    </linearGradient>
  </defs>
  <rect width="800" height="560" rx="36" fill="url(#bg)"/>
  <ellipse cx="490" cy="144" rx="246" ry="166" fill="url(#glow)"/>
  <path d="M96 432H704" stroke="rgba(72,62,114,0.06)"/>
  <g>
    <rect x="92" y="112" width="254" height="316" rx="30" fill="#FFFFFF" stroke="rgba(123,102,216,0.16)"/>
    <rect x="126" y="146" width="186" height="250" rx="28" fill="rgba(123,102,216,0.06)" stroke="rgba(123,102,216,0.12)"/>
    <rect x="154" y="176" width="130" height="18" rx="9" fill="rgba(69,60,104,0.15)"/>
    <rect x="154" y="208" width="86" height="14" rx="7" fill="rgba(69,60,104,0.1)"/>
    <rect x="154" y="250" width="128" height="94" rx="22" fill="#FFFFFF" stroke="rgba(123,102,216,0.14)"/>
    <circle cx="188" cy="296" r="26" fill="rgba(255,118,147,0.18)"/>
    <path d="M188 282v18" stroke="#E26E92" stroke-width="6" stroke-linecap="round"/>
    <circle cx="188" cy="309" r="3.5" fill="#E26E92"/>
    <rect x="226" y="278" width="30" height="10" rx="5" fill="rgba(69,60,104,0.18)"/>
    <rect x="226" y="298" width="46" height="10" rx="5" fill="rgba(69,60,104,0.12)"/>
  </g>
  <g>
    <rect x="404" y="146" width="300" height="112" rx="28" fill="rgba(255,255,255,0.72)" stroke="rgba(123,102,216,0.14)"/>
    <circle cx="450" cy="202" r="28" fill="rgba(123,102,216,0.14)"/>
    <path d="M450 186c9 0 16 7 16 16s-7 16-16 16-16-7-16-16 7-16 16-16Zm0 38c16 0 30 8 38 21" stroke="#6C5CB2" stroke-width="7" stroke-linecap="round"/>
    <rect x="500" y="182" width="126" height="16" rx="8" fill="rgba(69,60,104,0.16)"/>
    <rect x="500" y="212" width="82" height="12" rx="6" fill="rgba(69,60,104,0.1)"/>
    <rect x="640" y="176" width="40" height="40" rx="12" fill="rgba(255,120,120,0.16)"/>
    <path d="M653 189l14 14M667 189l-14 14" stroke="#E46A82" stroke-width="5" stroke-linecap="round"/>
  </g>
  <g>
    <rect x="404" y="292" width="132" height="120" rx="26" fill="#FFFFFF" stroke="rgba(123,102,216,0.14)"/>
    <path d="M470 316l38 13v29c0 34-18 58-38 72-20-14-38-38-38-72v-29l38-13Z" fill="url(#accent)"/>
    <path d="M454 356l12 12 22-27" stroke="#FFFFFF" stroke-width="9" stroke-linecap="round" stroke-linejoin="round"/>
  </g>
  <g>
    <rect x="560" y="292" width="144" height="120" rx="26" fill="rgba(123,102,216,0.08)"/>
    <rect x="590" y="322" width="84" height="20" rx="10" fill="rgba(69,60,104,0.18)"/>
    <rect x="590" y="356" width="62" height="16" rx="8" fill="rgba(69,60,104,0.12)"/>
    <rect x="590" y="384" width="52" height="16" rx="8" fill="rgba(69,60,104,0.1)"/>
  </g>
</svg>