<svg xmlns="http://www.w3.org/2000/svg" viewBox="0 0 800 560" fill="none">
  <defs>
    <linearGradient id="bg" x1="0" y1="0" x2="1" y2="1">
      <stop offset="0%" stop-color="#FAF7FF"/>
      <stop offset="100%" stop-color="#F1ECFF"/>
    </linearGradient>
    <radialGradient id="glow" cx="0" cy="0" r="1" gradientUnits="userSpaceOnUse" gradientTransform="translate(500 140) rotate(90) scale(230 300)">
      <stop offset="0%" stop-color="#FFFFFF"/>
      <stop offset="24%" stop-color="#ECE6FF" stop-opacity="0.94"/>
      <stop offset="58%" stop-color="#7E62FF" stop-opacity="0.22"/>
      <stop offset="100%" stop-color="#7E62FF" stop-opacity="0"/>
    </radialGradient>
    <linearGradient id="card" x1="0" y1="0" x2="1" y2="1">
      <stop offset="0%" stop-color="#FFFFFF"/>
      <stop offset="100%" stop-color="#F7F3FF"/>
    </linearGradient>
    <linearGradient id="shield" x1="0" y1="0" x2="1" y2="1">
      <stop offset="0%" stop-color="#8E7CFF"/>
      <stop offset="100%" stop-color="#6A89FF"/>
    </linearGradient>
  </defs>
  <rect width="800" height="560" rx="36" fill="url(#bg)"/>
  <ellipse cx="500" cy="150" rx="248" ry="170" fill="url(#glow)"/>
  <path d="M98 432H702" stroke="rgba(62,56,95,0.07)"/>
  <g>
    <rect x="100" y="122" width="258" height="286" rx="30" fill="url(#card)" stroke="rgba(126,98,255,0.16)"/>
    <rect x="128" y="152" width="202" height="116" rx="28" fill="rgba(126,98,255,0.10)" stroke="rgba(126,98,255,0.12)"/>
    <path d="M164 224c0-28 20-50 46-50h38c26 0 46 22 46 50 0 6-2 12-5 18h-36l-16-20-20 20h-53c0-6 0-12 0-18Z" fill="#FFFFFF" opacity="0.95"/>
    <circle cx="188" cy="194" r="8" fill="#7E62FF"/>
    <circle cx="270" cy="194" r="8" fill="#7E62FF"/>
    <rect x="138" y="298" width="120" height="18" rx="9" fill="rgba(62,56,95,0.16)"/>
    <rect x="138" y="330" width="88" height="14" rx="7" fill="rgba(62,56,95,0.1)"/>
    <rect x="138" y="356" width="74" height="14" rx="7" fill="rgba(62,56,95,0.08)"/>
  </g>
  <g>
    <rect x="408" y="144" width="286" height="114" rx="28" fill="rgba(126,98,255,0.10)"/>
    <rect x="432" y="176" width="84" height="84" rx="20" fill="#FFFFFF" opacity="0.92"/>
    <path d="M462 184h24v24h24v24h-24v24h-24v-24h-24v-24h24v-24Z" fill="#7E62FF" opacity="0.22"/>
    <path d="M470 214h8" stroke="#7E62FF" stroke-width="5" stroke-linecap="round"/>
    <rect x="548" y="184" width="106" height="18" rx="9" fill="rgba(62,56,95,0.16)"/>
    <rect x="548" y="214" width="84" height="14" rx="7" fill="rgba(62,56,95,0.1)"/>
  </g>
  <g>
    <rect x="408" y="286" width="132" height="122" rx="26" fill="#FFFFFF" stroke="rgba(126,98,255,0.14)"/>
    <path d="M474 310l38 13v29c0 36-18 60-38 74-20-14-38-38-38-74v-29l38-13Z" fill="url(#shield)"/>
    <path d="M458 352l12 12 22-27" stroke="#FFFFFF" stroke-width="9" stroke-linecap="round" stroke-linejoin="round"/>
  </g>
  <g>
    <rect x="560" y="286" width="134" height="122" rx="26" fill="rgba(126,98,255,0.08)"/>
    <rect x="582" y="312" width="90" height="44" rx="22" fill="#6D56F7"/>
    <circle cx="602" cy="334" r="10" fill="#FFFFFF" opacity="0.92"/>
    <circle cx="652" cy="334" r="10" fill="#FFFFFF" opacity="0.92"/>
    <path d="M602 330v8M598 334h8" stroke="#6D56F7" stroke-width="4" stroke-linecap="round"/>
    <circle cx="652" cy="334" r="3.8" fill="#6D56F7"/>
    <rect x="592" y="372" width="72" height="14" rx="7" fill="rgba(62,56,95,0.12)"/>
  </g>
</svg>